<svg xmlns="http://www.w3.org/2000/svg" width="22.4" height="20.243" viewBox="0 0 22.4 20.243">
  <g id="Group_3" data-name="Group 3" transform="translate(-1706.8 -57.379)">
    <line id="Line_2" data-name="Line 2" x2="16" y2="16" transform="translate(1710.5 59.5)" fill="none" stroke="#193b68" stroke-linecap="round" stroke-width="3" opacity="0"/>
    <line id="Line_3" data-name="Line 3" x1="16" y2="16" transform="translate(1710.5 59.5)" fill="none" stroke="#193b68" stroke-linecap="round" stroke-width="3" opacity="0"/>
    <g id="Group_2" data-name="Group 2" transform="translate(-54.5 -30)">
      <path id="menu" d="M26.24,14.4H5.76c-.883,0-.96.715-.96,1.6s.077,1.6.96,1.6H26.24c.883,0,.96-.715.96-1.6S27.123,14.4,26.24,14.4Zm0,6.4H5.76c-.883,0-.96.715-.96,1.6s.077,1.6.96,1.6H26.24c.883,0,.96-.715.96-1.6S27.123,20.8,26.24,20.8ZM5.76,11.2H26.24c.883,0,.96-.715.96-1.6S27.123,8,26.24,8H5.76c-.883,0-.96.715-.96,1.6S4.877,11.2,5.76,11.2Z" transform="translate(1756.5 81.5)" fill="#fff"/>
    </g>
  </g>
</svg>
